<?xml version="1.0" standalone="no"?>
<!DOCTYPE svg PUBLIC "-//W3C//DTD SVG 20010904//EN"
 "http://www.w3.org/TR/2001/REC-SVG-20010904/DTD/svg10.dtd">
<svg version="1.0" xmlns="http://www.w3.org/2000/svg"
 width="700.000000pt" height="700.000000pt" viewBox="0 0 700.000000 700.000000"
 preserveAspectRatio="xMidYMid meet">
<metadata>
Created by potrace 1.14, written by Peter Selinger 2001-2017
</metadata>
<g transform="translate(0.000000,700.000000) scale(0.100000,-0.100000)"
fill="#000000" stroke="none">
<path d="M2098 6015 c-2 -2 -35 -5 -73 -8 -227 -19 -403 -89 -553 -222 -31
-27 -102 -128 -140 -198 -31 -56 -73 -183 -88 -262 -5 -22 -9 -42 -9 -45 -3
-12 -16 -120 -21 -165 -2 -27 -6 -180 -9 -340 -9 -591 -31 -745 -133 -905
-104 -163 -262 -238 -537 -255 -136 -9 -151 -12 -179 -46 -39 -46 -36 -101 8
-145 33 -33 36 -34 117 -35 93 -1 110 -3 220 -24 259 -51 407 -203 463 -475
28 -138 35 -261 41 -670 4 -305 6 -344 31 -495 74 -445 315 -676 763 -731 111
-13 216 -10 244 9 51 33 66 94 36 149 -20 38 -53 49 -165 54 -375 17 -569 156
-643 459 -11 44 -23 107 -27 140 -3 33 -8 69 -10 80 -3 11 -6 144 -9 295 -5
301 -13 527 -20 578 -19 144 -24 169 -46 252 -55 199 -181 378 -328 462 -23
13 -41 25 -40 28 0 3 25 21 55 40 137 87 238 223 298 400 13 41 27 95 31 120
4 24 8 47 10 50 2 3 6 29 10 59 4 30 9 63 11 75 6 31 14 257 19 571 3 154 7
289 9 300 2 11 7 47 10 80 21 181 85 336 175 425 113 113 266 164 518 175 54
3 94 10 109 20 45 29 63 89 40 133 -26 50 -49 63 -120 66 -36 2 -67 2 -68 1z"/>
<path d="M4789 6012 c-34 -4 -79 -51 -83 -88 -2 -16 2 -44 9 -61 22 -51 51
-64 166 -68 237 -11 392 -65 501 -176 91 -93 154 -246 174 -424 3 -33 8 -69
10 -80 3 -11 7 -153 9 -315 5 -302 12 -498 20 -560 2 -19 7 -55 10 -80 3 -25
10 -61 15 -80 5 -19 11 -46 13 -60 8 -42 47 -151 74 -204 58 -114 148 -215
246 -276 31 -19 56 -37 56 -40 0 -3 -21 -18 -47 -33 -93 -56 -199 -172 -251
-274 -50 -100 -93 -246 -107 -368 -3 -22 -7 -51 -9 -65 -8 -41 -15 -259 -20
-540 -4 -303 -10 -379 -35 -505 -24 -116 -50 -186 -100 -263 -99 -152 -282
-233 -552 -246 -117 -6 -149 -18 -172 -65 -21 -43 -13 -89 22 -124 30 -30 34
-31 114 -30 121 0 225 14 335 43 298 80 477 272 557 600 23 94 29 134 42 260
2 19 6 170 8 335 7 416 13 519 43 664 57 287 215 439 503 485 19 3 76 8 125
11 137 9 151 12 180 47 23 27 26 39 22 76 -6 52 -37 90 -81 96 -17 3 -72 7
-121 10 -129 7 -238 32 -330 76 -189 89 -275 234 -319 542 -10 67 -17 239 -21
543 -2 165 -7 323 -10 350 -37 319 -107 503 -248 647 -146 150 -365 231 -652
241 -38 1 -82 1 -96 -1z"/>
</g>
</svg>
